<mxfile host="app.diagrams.net" modified="2023-09-12T04:51:27.675Z" agent="Mozilla/5.0 (Windows NT 10.0; Win64; x64) AppleWebKit/537.36 (KHTML, like Gecko) Chrome/116.0.0.0 Safari/537.36" etag="mSmSW179gXChnhdEhqMW" version="21.7.2" type="github">
  <diagram name="Página-1" id="YRrxscmIG7051MTdeDOo">
    <mxGraphModel dx="1707" dy="470" grid="1" gridSize="10" guides="1" tooltips="1" connect="1" arrows="1" fold="1" page="1" pageScale="1" pageWidth="827" pageHeight="1169" math="0" shadow="0">
      <root>
        <mxCell id="0" />
        <mxCell id="1" parent="0" />
        <mxCell id="bOBayo8HfqDC3svuPsRR-1" value="&lt;font style=&quot;font-size: 11px;&quot;&gt;&lt;br&gt;&lt;/font&gt;&lt;ul style=&quot;box-sizing: border-box; padding-left: 2em; margin-top: 0px; margin-bottom: 16px; color: rgb(230, 237, 243); font-family: -apple-system, BlinkMacSystemFont, &amp;quot;Segoe UI&amp;quot;, &amp;quot;Noto Sans&amp;quot;, Helvetica, Arial, sans-serif, &amp;quot;Apple Color Emoji&amp;quot;, &amp;quot;Segoe UI Emoji&amp;quot;; font-style: normal; font-variant-ligatures: normal; font-variant-caps: normal; font-weight: 400; letter-spacing: normal; orphans: 2; text-align: start; text-indent: 0px; text-transform: none; widows: 2; word-spacing: 0px; -webkit-text-stroke-width: 0px; background-color: rgb(13, 17, 23); text-decoration-thickness: initial; text-decoration-style: initial; text-decoration-color: initial; font-size: 11px;&quot; dir=&quot;auto&quot;&gt;&lt;li style=&quot;box-sizing: border-box;&quot;&gt;&lt;font style=&quot;font-size: 11px;&quot;&gt;Se necesita conocer los datos personales de los clientes (nombre, apellidos, RFC, dirección y fecha de nacimiento).&lt;/font&gt;&lt;/li&gt;&lt;li style=&quot;box-sizing: border-box; margin-top: 0.25em;&quot;&gt;&lt;font style=&quot;font-size: 11px;&quot;&gt;Cada producto tiene un nombre y un código, así como un precio unitario.&lt;/font&gt;&lt;/li&gt;&lt;li style=&quot;box-sizing: border-box; margin-top: 0.25em;&quot;&gt;&lt;font style=&quot;font-size: 11px;&quot;&gt;Un cliente puede comprar varios productos a la empresa, y un mismo producto puede ser comprado por varios clientes.&lt;/font&gt;&lt;/li&gt;&lt;li style=&quot;box-sizing: border-box; margin-top: 0.25em;&quot;&gt;&lt;font style=&quot;font-size: 11px;&quot;&gt;Los productos son suministrados por diferentes proveedores.&lt;/font&gt;&lt;/li&gt;&lt;li style=&quot;box-sizing: border-box; margin-top: 0.25em;&quot;&gt;&lt;font style=&quot;font-size: 11px;&quot;&gt;Se debe tener en cuenta que un producto sólo puede ser suministrado por un proveedor, y que un proveedor puede suministrar diferentes productos.&lt;/font&gt;&lt;/li&gt;&lt;li style=&quot;box-sizing: border-box; margin-top: 0.25em;&quot;&gt;&lt;font style=&quot;font-size: 11px;&quot;&gt;De cada proveedor se desea conocer el RFC, nombre y dirección.&lt;/font&gt;&lt;/li&gt;&lt;/ul&gt;&lt;font style=&quot;font-size: 11px;&quot;&gt;&lt;br&gt;&lt;/font&gt;" style="shape=note;size=20;whiteSpace=wrap;html=1;" parent="1" vertex="1">
          <mxGeometry x="-90" y="30" width="790" height="90" as="geometry" />
        </mxCell>
        <mxCell id="bOBayo8HfqDC3svuPsRR-2" value="CLIENTES" style="whiteSpace=wrap;html=1;align=center;" parent="1" vertex="1">
          <mxGeometry x="-10" y="240" width="100" height="30" as="geometry" />
        </mxCell>
        <mxCell id="bOBayo8HfqDC3svuPsRR-3" value="PRODUCTO" style="whiteSpace=wrap;html=1;align=center;" parent="1" vertex="1">
          <mxGeometry x="400" y="250" width="87.5" height="30" as="geometry" />
        </mxCell>
        <mxCell id="7aSAzmRbqPZyISDXXuLN-12" style="edgeStyle=orthogonalEdgeStyle;rounded=0;orthogonalLoop=1;jettySize=auto;html=1;exitX=0.5;exitY=1;exitDx=0;exitDy=0;" edge="1" parent="1" source="bOBayo8HfqDC3svuPsRR-6">
          <mxGeometry relative="1" as="geometry">
            <mxPoint x="-94.66666666666674" y="210.0000000000001" as="targetPoint" />
          </mxGeometry>
        </mxCell>
        <mxCell id="bOBayo8HfqDC3svuPsRR-6" value="Nombre" style="ellipse;whiteSpace=wrap;html=1;align=center;" parent="1" vertex="1">
          <mxGeometry x="-130" y="200" width="60" height="30" as="geometry" />
        </mxCell>
        <mxCell id="bOBayo8HfqDC3svuPsRR-7" value="Apellido" style="ellipse;whiteSpace=wrap;html=1;align=center;" parent="1" vertex="1">
          <mxGeometry x="-130" y="240" width="60" height="30" as="geometry" />
        </mxCell>
        <mxCell id="bOBayo8HfqDC3svuPsRR-8" value="Dirección" style="ellipse;whiteSpace=wrap;html=1;align=center;" parent="1" vertex="1">
          <mxGeometry x="-130" y="280" width="60" height="30" as="geometry" />
        </mxCell>
        <mxCell id="bOBayo8HfqDC3svuPsRR-9" value="RFC" style="ellipse;whiteSpace=wrap;html=1;align=center;fontStyle=4;" parent="1" vertex="1">
          <mxGeometry x="10" y="160" width="40" height="25" as="geometry" />
        </mxCell>
        <mxCell id="bOBayo8HfqDC3svuPsRR-10" value="Fecha_nacimiento" style="ellipse;whiteSpace=wrap;html=1;align=center;" parent="1" vertex="1">
          <mxGeometry x="-42.5" y="330" width="145" height="30" as="geometry" />
        </mxCell>
        <mxCell id="bOBayo8HfqDC3svuPsRR-11" value="" style="endArrow=none;html=1;rounded=0;dashed=1;dashPattern=1 2;" parent="1" edge="1">
          <mxGeometry relative="1" as="geometry">
            <mxPoint x="220" y="220" as="sourcePoint" />
            <mxPoint x="250" y="220" as="targetPoint" />
            <Array as="points" />
          </mxGeometry>
        </mxCell>
        <mxCell id="bOBayo8HfqDC3svuPsRR-12" value="N" style="resizable=0;html=1;whiteSpace=wrap;align=left;verticalAlign=bottom;" parent="bOBayo8HfqDC3svuPsRR-11" connectable="0" vertex="1">
          <mxGeometry x="-1" relative="1" as="geometry">
            <mxPoint as="offset" />
          </mxGeometry>
        </mxCell>
        <mxCell id="bOBayo8HfqDC3svuPsRR-13" value="M" style="resizable=0;html=1;whiteSpace=wrap;align=right;verticalAlign=bottom;" parent="bOBayo8HfqDC3svuPsRR-11" connectable="0" vertex="1">
          <mxGeometry x="1" relative="1" as="geometry">
            <mxPoint x="-7" as="offset" />
          </mxGeometry>
        </mxCell>
        <mxCell id="7aSAzmRbqPZyISDXXuLN-4" value="RFC" style="ellipse;whiteSpace=wrap;html=1;" vertex="1" parent="1">
          <mxGeometry x="360" y="130" width="67.5" height="30" as="geometry" />
        </mxCell>
        <mxCell id="7aSAzmRbqPZyISDXXuLN-5" value="Nombre" style="ellipse;whiteSpace=wrap;html=1;" vertex="1" parent="1">
          <mxGeometry x="830" y="160" width="90" height="40" as="geometry" />
        </mxCell>
        <mxCell id="7aSAzmRbqPZyISDXXuLN-6" value="Codigo" style="ellipse;whiteSpace=wrap;html=1;" vertex="1" parent="1">
          <mxGeometry x="830" y="230" width="95" height="40" as="geometry" />
        </mxCell>
        <mxCell id="7aSAzmRbqPZyISDXXuLN-8" value="Precio unitario" style="ellipse;whiteSpace=wrap;html=1;" vertex="1" parent="1">
          <mxGeometry x="830" y="300" width="92.5" height="40" as="geometry" />
        </mxCell>
        <mxCell id="7aSAzmRbqPZyISDXXuLN-9" value="" style="ellipse;whiteSpace=wrap;html=1;" vertex="1" parent="1">
          <mxGeometry x="640" y="120" width="90" as="geometry" />
        </mxCell>
        <mxCell id="7aSAzmRbqPZyISDXXuLN-10" value="SUMINISTRA" style="rhombus;whiteSpace=wrap;html=1;" vertex="1" parent="1">
          <mxGeometry x="400" y="345" width="88.75" height="50" as="geometry" />
        </mxCell>
        <mxCell id="7aSAzmRbqPZyISDXXuLN-11" value="PROVEEDOR" style="rounded=0;whiteSpace=wrap;html=1;" vertex="1" parent="1">
          <mxGeometry x="400" y="455" width="87.5" height="30" as="geometry" />
        </mxCell>
        <mxCell id="7aSAzmRbqPZyISDXXuLN-13" value="COMPRA" style="rhombus;whiteSpace=wrap;html=1;" vertex="1" parent="1">
          <mxGeometry x="180" y="235" width="104" height="50" as="geometry" />
        </mxCell>
        <mxCell id="7aSAzmRbqPZyISDXXuLN-16" value="RFC" style="ellipse;whiteSpace=wrap;html=1;align=center;" vertex="1" parent="1">
          <mxGeometry x="160" y="330" width="60" height="30" as="geometry" />
        </mxCell>
        <mxCell id="7aSAzmRbqPZyISDXXuLN-17" value="codigo" style="ellipse;whiteSpace=wrap;html=1;align=center;" vertex="1" parent="1">
          <mxGeometry x="254" y="330" width="60" height="30" as="geometry" />
        </mxCell>
        <mxCell id="7aSAzmRbqPZyISDXXuLN-23" value="RFC" style="ellipse;whiteSpace=wrap;html=1;align=center;" vertex="1" parent="1">
          <mxGeometry x="275" y="455" width="60" height="30" as="geometry" />
        </mxCell>
        <mxCell id="7aSAzmRbqPZyISDXXuLN-24" value="nombre" style="ellipse;whiteSpace=wrap;html=1;align=center;" vertex="1" parent="1">
          <mxGeometry x="580" y="390" width="60" height="30" as="geometry" />
        </mxCell>
        <mxCell id="7aSAzmRbqPZyISDXXuLN-25" value="direccion" style="ellipse;whiteSpace=wrap;html=1;align=center;" vertex="1" parent="1">
          <mxGeometry x="580" y="510" width="60" height="30" as="geometry" />
        </mxCell>
        <mxCell id="7aSAzmRbqPZyISDXXuLN-28" value="nombre" style="ellipse;whiteSpace=wrap;html=1;align=center;" vertex="1" parent="1">
          <mxGeometry x="630" y="170" width="60" height="30" as="geometry" />
        </mxCell>
        <mxCell id="7aSAzmRbqPZyISDXXuLN-29" value="codigo" style="ellipse;whiteSpace=wrap;html=1;align=center;" vertex="1" parent="1">
          <mxGeometry x="630" y="240" width="60" height="30" as="geometry" />
        </mxCell>
        <mxCell id="7aSAzmRbqPZyISDXXuLN-30" value="precio" style="ellipse;whiteSpace=wrap;html=1;align=center;" vertex="1" parent="1">
          <mxGeometry x="630" y="320" width="60" height="30" as="geometry" />
        </mxCell>
      </root>
    </mxGraphModel>
  </diagram>
</mxfile>
